<?xml version="1.0" encoding="utf-8"?>
<!-- Generator: Adobe Illustrator 22.0.1, SVG Export Plug-In . SVG Version: 6.00 Build 0)  -->
<svg version="1.1" id="Layer_1" xmlns="http://www.w3.org/2000/svg" xmlns:xlink="http://www.w3.org/1999/xlink" x="0px" y="0px"
	 viewBox="0 0 411.1 434.4" style="enable-background:new 0 0 411.1 434.4;" xml:space="preserve">
<style type="text/css">
	.st0{opacity:0.31;fill:#D2ECFC;enable-background:new    ;}
	.st1{fill:#FFFFFF;}
	.st2{fill:#D2ECFC;}
	.st3{fill:url(#SVGID_1_);}
	.st4{fill:url(#SVGID_2_);}
	.st5{fill:url(#SVGID_3_);}
	.st6{fill:url(#SVGID_4_);}
	.st7{fill:url(#SVGID_5_);}
	.st8{fill:url(#SVGID_6_);}
	.st9{fill:url(#SVGID_7_);}
	.st10{fill:url(#SVGID_8_);}
	.st11{fill:url(#SVGID_9_);}
	.st12{fill:url(#SVGID_10_);}
	.st13{fill:url(#SVGID_11_);}
	.st14{fill:url(#SVGID_12_);}
	.st15{fill:url(#SVGID_13_);}
	.st16{fill:url(#SVGID_14_);}
	.st17{fill:url(#SVGID_15_);}
	.st18{fill:#C5E6EE;}
	.st19{fill:#9ED8F7;}
	.st20{fill:url(#SVGID_16_);}
	.st21{fill:url(#SVGID_17_);}
	.st22{fill:url(#SVGID_18_);}
	.st23{fill:url(#SVGID_19_);}
	.st24{fill:url(#SVGID_20_);}
	.st25{fill:url(#SVGID_21_);}
	.st26{fill:url(#SVGID_22_);}
	.st27{fill:url(#SVGID_23_);}
	.st28{fill:url(#SVGID_24_);}
	.st29{fill:#5CC4F1;}
	.st30{fill:#80CEF4;}
	.st31{fill:#1A80AF;}
	.st32{fill:#D6D6D6;}
	.st33{fill:#009FE3;}
	.st34{fill:#00B7ED;}
	.st35{fill:url(#SVGID_25_);}
	.st36{fill:#DB8B68;}
	.st37{fill:#5B3227;}
	.st38{fill:#C7675B;}
	.st39{fill:url(#SVGID_26_);}
	.st40{fill:url(#SVGID_27_);}
	.st41{fill:url(#SVGID_28_);}
	.st42{fill:url(#SVGID_29_);}
	.st43{fill:url(#SVGID_30_);}
	.st44{fill:url(#SVGID_31_);}
	.st45{opacity:0.6;fill:#51A631;enable-background:new    ;}
	.st46{fill:#A35E1A;}
	.st47{fill:url(#SVGID_32_);}
	.st48{fill:#F0B605;}
	.st49{fill:url(#SVGID_33_);}
	.st50{fill:url(#SVGID_34_);}
	.st51{fill:url(#SVGID_35_);}
	.st52{fill:url(#SVGID_36_);}
	.st53{fill:#C66E00;}
	.st54{fill:url(#SVGID_37_);}
	.st55{fill:url(#SVGID_38_);}
	.st56{fill:url(#SVGID_39_);}
	.st57{fill:url(#SVGID_40_);}
	.st58{fill:url(#SVGID_41_);}
	.st59{fill:url(#SVGID_42_);}
	.st60{fill:url(#SVGID_43_);}
	.st61{fill:url(#SVGID_44_);}
	.st62{fill:url(#SVGID_45_);}
	.st63{fill:url(#SVGID_46_);}
	.st64{fill:url(#SVGID_47_);}
	.st65{fill:#528620;}
	.st66{fill:url(#SVGID_48_);}
	.st67{fill:url(#SVGID_49_);}
	.st68{fill:url(#SVGID_50_);}
	.st69{fill:url(#SVGID_51_);}
	.st70{fill:url(#SVGID_52_);}
	.st71{fill:url(#SVGID_53_);}
	.st72{fill:url(#SVGID_54_);}
	.st73{opacity:0.6;fill:#81B424;enable-background:new    ;}
	.st74{fill:url(#SVGID_55_);}
	.st75{fill:url(#SVGID_56_);}
	.st76{fill:#FFCF58;}
	.st77{fill:#E8E8E8;}
</style>
<g id="OBJECTS">
	<g>
		<g>
			<g>
				<circle class="st0" cx="152.9" cy="319.3" r="147.6"/>
				<g>
					<g>
						<circle class="st1" cx="155.7" cy="225.5" r="5.5"/>
						<circle class="st1" cx="166.8" cy="219.1" r="10.6"/>
						<circle class="st1" cx="160.8" cy="229.3" r="5.1"/>
						<circle class="st1" cx="177.8" cy="225.9" r="10.6"/>
						<circle class="st1" cx="188" cy="226.8" r="5.9"/>
						<circle class="st1" cx="166.8" cy="228.5" r="8.1"/>
					</g>
					<g>
						<circle class="st1" cx="74.7" cy="258.5" r="2.2"/>
						
							<ellipse transform="matrix(4.531456e-02 -0.999 0.999 4.531456e-02 -180.2214 323.4182)" class="st1" cx="79.1" cy="256" rx="4.2" ry="4.2"/>
						<circle class="st1" cx="76.7" cy="260.1" r="2"/>
						
							<ellipse transform="matrix(4.531456e-02 -0.999 0.999 4.531456e-02 -178.718 330.3914)" class="st1" cx="83.5" cy="258.7" rx="4.2" ry="4.2"/>
						<circle class="st1" cx="87.5" cy="259.1" r="2.4"/>
						
							<ellipse transform="matrix(3.327801e-02 -0.9994 0.9994 3.327801e-02 -183.0885 330.1139)" class="st1" cx="79.1" cy="259.7" rx="3.2" ry="3.2"/>
					</g>
					<g>
						<circle class="st1" cx="257.7" cy="248.1" r="4.4"/>
						<circle class="st1" cx="248.8" cy="243" r="8.6"/>
						<circle class="st1" cx="253.6" cy="251.2" r="4.1"/>
						<circle class="st1" cx="239.9" cy="248.4" r="8.6"/>
						<circle class="st1" cx="231.7" cy="249.1" r="4.8"/>
						<circle class="st1" cx="248.8" cy="250.5" r="6.5"/>
					</g>
				</g>
			</g>
			<g>
				<g>
					<polygon class="st2" points="254.5,428.6 284.5,428.6 284.5,302.6 254.5,289.2 					"/>
					<rect x="230.9" y="351.4" class="st2" width="29.6" height="77.2"/>
					<rect x="203" y="313.2" class="st2" width="27.9" height="115.4"/>
					<rect x="211.2" y="282.2" class="st2" width="11.5" height="115.4"/>
					<rect x="215.9" y="242.4" class="st2" width="2.2" height="115.4"/>
					<rect x="191.4" y="344.5" class="st2" width="14.6" height="84.1"/>
					<rect x="178.6" y="331.6" class="st2" width="16.3" height="97"/>
					<polygon class="st2" points="147.7,428.6 181.2,428.6 181.2,264 147.7,281.9 					"/>
					<rect x="115.1" y="316.2" class="st2" width="35.6" height="112.4"/>
					<rect x="102.2" y="365.1" class="st2" width="16.3" height="63.5"/>
					<rect x="84.2" y="332.9" class="st2" width="20.6" height="95.7"/>
					<polygon class="st2" points="40.9,428.6 84.6,428.6 84.6,317 62.8,303 40.9,317 					"/>
					<rect x="-0.3" y="350.1" class="st2" width="45.5" height="78.5"/>
					<rect x="-25.2" y="298.6" class="st2" width="29.2" height="130"/>
					<rect x="-46.7" y="338.5" class="st2" width="24.5" height="90.1"/>
				</g>
				<g>
					
						<linearGradient id="SVGID_1_" gradientUnits="userSpaceOnUse" x1="12.9" y1="60.1" x2="42.9322" y2="60.1" gradientTransform="matrix(1 0 0 -1 0 442)">
						<stop  offset="0" style="stop-color:#A3CCE3"/>
						<stop  offset="1" style="stop-color:#A3CCE3"/>
					</linearGradient>
					<polygon class="st3" points="42.9,434.5 12.9,434.5 12.9,342.8 42.9,329.3 					"/>
					
						<linearGradient id="SVGID_2_" gradientUnits="userSpaceOnUse" x1="36.9" y1="29" x2="66.5" y2="29" gradientTransform="matrix(1 0 0 -1 0 442)">
						<stop  offset="0" style="stop-color:#A3CCE3"/>
						<stop  offset="1" style="stop-color:#A3CCE3"/>
					</linearGradient>
					<rect x="36.9" y="391.5" class="st4" width="29.6" height="43"/>
					
						<linearGradient id="SVGID_3_" gradientUnits="userSpaceOnUse" x1="66.5" y1="48.1" x2="94.4" y2="48.1" gradientTransform="matrix(1 0 0 -1 0 442)">
						<stop  offset="0" style="stop-color:#A3CCE3"/>
						<stop  offset="1" style="stop-color:#A3CCE3"/>
					</linearGradient>
					<rect x="66.5" y="353.3" class="st5" width="27.9" height="81.2"/>
					
						<linearGradient id="SVGID_4_" gradientUnits="userSpaceOnUse" x1="74.7" y1="74.5" x2="86.1863" y2="74.5" gradientTransform="matrix(1 0 0 -1 0 442)">
						<stop  offset="0" style="stop-color:#A3CCE3"/>
						<stop  offset="1" style="stop-color:#A3CCE3"/>
					</linearGradient>
					<rect x="74.7" y="322.3" class="st6" width="11.5" height="90.4"/>
					
						<linearGradient id="SVGID_5_" gradientUnits="userSpaceOnUse" x1="79.3394" y1="101.7" x2="81.5493" y2="101.7" gradientTransform="matrix(1 0 0 -1 0 442)">
						<stop  offset="0" style="stop-color:#A3CCE3"/>
						<stop  offset="1" style="stop-color:#A3CCE3"/>
					</linearGradient>
					<rect x="79.3" y="282.6" class="st7" width="2.2" height="115.4"/>
					
						<linearGradient id="SVGID_6_" gradientUnits="userSpaceOnUse" x1="91.3848" y1="32.45" x2="105.9848" y2="32.45" gradientTransform="matrix(1 0 0 -1 0 442)">
						<stop  offset="0" style="stop-color:#A3CCE3"/>
						<stop  offset="1" style="stop-color:#A3CCE3"/>
					</linearGradient>
					<rect x="91.4" y="384.6" class="st8" width="14.6" height="49.9"/>
					
						<linearGradient id="SVGID_7_" gradientUnits="userSpaceOnUse" x1="102.5396" y1="38.95" x2="118.8396" y2="38.95" gradientTransform="matrix(1 0 0 -1 0 442)">
						<stop  offset="0" style="stop-color:#A3CCE3"/>
						<stop  offset="1" style="stop-color:#A3CCE3"/>
					</linearGradient>
					<rect x="102.5" y="371.7" class="st9" width="16.3" height="62.7"/>
					
						<linearGradient id="SVGID_8_" gradientUnits="userSpaceOnUse" x1="116.3" y1="72.7" x2="149.7648" y2="72.7" gradientTransform="matrix(1 0 0 -1 0 442)">
						<stop  offset="0" style="stop-color:#A3CCE3"/>
						<stop  offset="1" style="stop-color:#A3CCE3"/>
					</linearGradient>
					<polygon class="st10" points="149.7,434.5 116.3,434.5 116.3,304.1 149.7,322 					"/>
					
						<linearGradient id="SVGID_9_" gradientUnits="userSpaceOnUse" x1="146.7" y1="46.6" x2="182.3" y2="46.6" gradientTransform="matrix(1 0 0 -1 0 442)">
						<stop  offset="0" style="stop-color:#A3CCE3"/>
						<stop  offset="1" style="stop-color:#A3CCE3"/>
					</linearGradient>
					<rect x="146.7" y="356.3" class="st11" width="35.6" height="78.2"/>
					
						<linearGradient id="SVGID_10_" gradientUnits="userSpaceOnUse" x1="178.9" y1="22.15" x2="195.2" y2="22.15" gradientTransform="matrix(1 0 0 -1 0 442)">
						<stop  offset="0" style="stop-color:#A3CCE3"/>
						<stop  offset="1" style="stop-color:#A3CCE3"/>
					</linearGradient>
					<rect x="178.9" y="405.2" class="st12" width="16.3" height="29.3"/>
					
						<linearGradient id="SVGID_11_" gradientUnits="userSpaceOnUse" x1="192.6367" y1="38.3" x2="213.2367" y2="38.3" gradientTransform="matrix(1 0 0 -1 0 442)">
						<stop  offset="0" style="stop-color:#A3CCE3"/>
						<stop  offset="1" style="stop-color:#A3CCE3"/>
					</linearGradient>
					<rect x="192.6" y="373" class="st13" width="20.6" height="61.4"/>
					
						<linearGradient id="SVGID_12_" gradientUnits="userSpaceOnUse" x1="212.8" y1="53.15" x2="256.6" y2="53.15" gradientTransform="matrix(1 0 0 -1 0 442)">
						<stop  offset="0" style="stop-color:#A3CCE3"/>
						<stop  offset="1" style="stop-color:#A3CCE3"/>
					</linearGradient>
					<polygon class="st14" points="256.6,434.5 212.8,434.5 212.8,357.2 234.6,343.2 256.6,357.2 					"/>
					
						<linearGradient id="SVGID_13_" gradientUnits="userSpaceOnUse" x1="252.3" y1="29.65" x2="297.8" y2="29.65" gradientTransform="matrix(1 0 0 -1 0 442)">
						<stop  offset="0" style="stop-color:#A3CCE3"/>
						<stop  offset="1" style="stop-color:#A3CCE3"/>
					</linearGradient>
					<rect x="252.3" y="390.2" class="st15" width="45.5" height="44.3"/>
					
						<linearGradient id="SVGID_14_" gradientUnits="userSpaceOnUse" x1="-21.1" y1="34.65" x2="17.8" y2="34.65" gradientTransform="matrix(1 0 0 -1 0 442)">
						<stop  offset="0" style="stop-color:#A3CCE3"/>
						<stop  offset="1" style="stop-color:#A3CCE3"/>
					</linearGradient>
					<rect x="-21.1" y="380.2" class="st16" width="38.9" height="54.3"/>
					
						<linearGradient id="SVGID_15_" gradientUnits="userSpaceOnUse" x1="-46.6646" y1="28.5" x2="-18.1318" y2="28.5" gradientTransform="matrix(1 0 0 -1 0 442)">
						<stop  offset="0" style="stop-color:#A3CCE3"/>
						<stop  offset="1" style="stop-color:#A3CCE3"/>
					</linearGradient>
					<rect x="-46.7" y="392.5" class="st17" width="28.5" height="42"/>
					<rect x="123.2" y="325.5" class="st18" width="4.9" height="13.1"/>
					<rect x="135.4" y="325.5" class="st18" width="4.9" height="13.1"/>
					<rect x="123.2" y="350.4" class="st18" width="4.9" height="13.1"/>
					<rect x="135.4" y="350.4" class="st18" width="4.9" height="13.1"/>
					<rect x="123.2" y="375.4" class="st18" width="4.9" height="13.1"/>
					<rect x="135.4" y="375.4" class="st18" width="4.9" height="13.1"/>
					<rect x="123.2" y="400.4" class="st18" width="4.9" height="13.1"/>
					<rect x="135.4" y="400.4" class="st18" width="4.9" height="13.1"/>
					<rect x="155.9" y="365.8" class="st18" width="4.9" height="13.1"/>
					<rect x="168.1" y="365.8" class="st18" width="4.9" height="13.1"/>
					<rect x="155.9" y="390.8" class="st18" width="4.9" height="13.1"/>
					<rect x="168.1" y="390.8" class="st18" width="4.9" height="13.1"/>
					<rect x="197.5" y="378.2" class="st18" width="4.9" height="13.1"/>
					<rect x="209.7" y="378.2" class="st18" width="4.9" height="13.1"/>
					<rect x="197.5" y="403.2" class="st18" width="4.9" height="13.1"/>
					<rect x="209.7" y="403.2" class="st18" width="4.9" height="13.1"/>
					<rect x="227.9" y="364" class="st18" width="4.9" height="13.1"/>
					<rect x="240.1" y="364" class="st18" width="4.9" height="13.1"/>
					<rect x="227.9" y="388.9" class="st18" width="4.9" height="13.1"/>
					<rect x="240.1" y="388.9" class="st18" width="4.9" height="13.1"/>
					<rect x="72.9" y="359.1" class="st18" width="4.9" height="13.1"/>
					<rect x="85.1" y="359.1" class="st18" width="4.9" height="13.1"/>
					<rect x="72.9" y="384" class="st18" width="4.9" height="13.1"/>
					<rect x="85.1" y="384" class="st18" width="4.9" height="13.1"/>
					<rect x="20" y="347.8" class="st18" width="4.9" height="13.1"/>
					<rect x="32.2" y="347.8" class="st18" width="4.9" height="13.1"/>
					<rect x="20" y="372.8" class="st18" width="4.9" height="13.1"/>
					<rect x="32.2" y="372.8" class="st18" width="4.9" height="13.1"/>
				</g>
				<g>
					<path class="st2" d="M45.1,275.5h-67.4c-4.1,0-7.4-3.3-7.4-7.4l0,0c0-4.1,3.3-7.4,7.4-7.4h67.4c4.1,0,7.4,3.3,7.4,7.4l0,0
						C52.5,272.2,49.2,275.5,45.1,275.5z"/>
					<path class="st2" d="M38,257.9H-0.9c-3.7,0-6.7-3-6.7-6.7v-1.5c0-3.7,3-6.7,6.7-6.7H38c3.7,0,6.7,3,6.7,6.7v1.5
						C44.7,254.9,41.7,257.9,38,257.9z"/>
				</g>
			</g>
		</g>
		<g>
			<path class="st19" d="M243.9,450.3h-29.5c-1.8,0-3.2,1.5-3.2,3.2s1.5,3.2,3.2,3.2h29.5c1.8,0,3.2-1.5,3.2-3.2
				S245.7,450.3,243.9,450.3z"/>
			<path class="st19" d="M205.7,450.3h-5.1c-1.8,0-3.2,1.5-3.2,3.2s1.5,3.2,3.2,3.2h5.1c1.8,0,3.2-1.5,3.2-3.2
				S207.5,450.3,205.7,450.3z"/>
			<g>
				
					<linearGradient id="SVGID_16_" gradientUnits="userSpaceOnUse" x1="139.6785" y1="-3.5054" x2="163.9527" y2="-69.5538" gradientTransform="matrix(1 0 0 -1 0 442)">
					<stop  offset="0" style="stop-color:#A1D9F7"/>
					<stop  offset="1" style="stop-color:#D2ECFC"/>
				</linearGradient>
				<path class="st20" d="M332.6,453.1H-53.1c-4.1,0-7.4-3.3-7.4-7.4l0,0c0-4.1,3.3-7.4,7.4-7.4h385.7c4.1,0,7.4,3.3,7.4,7.4l0,0
					C340,449.7,336.7,453.1,332.6,453.1z"/>
				
					<linearGradient id="SVGID_17_" gradientUnits="userSpaceOnUse" x1="169.962" y1="7.6231" x2="194.2363" y2="-58.4252" gradientTransform="matrix(1 0 0 -1 0 442)">
					<stop  offset="0" style="stop-color:#A1D9F7"/>
					<stop  offset="1" style="stop-color:#D2ECFC"/>
				</linearGradient>
				<path class="st21" d="M371.2,464.6H-14.5c-4.1,0-7.4-3.3-7.4-7.4l0,0c0-4.1,3.3-7.4,7.4-7.4h385.7c4.1,0,7.4,3.3,7.4,7.4l0,0
					C378.6,461.3,375.3,464.6,371.2,464.6z"/>
				
					<linearGradient id="SVGID_18_" gradientUnits="userSpaceOnUse" x1="63.9242" y1="-31.3472" x2="88.1984" y2="-97.3952" gradientTransform="matrix(1 0 0 -1 0 442)">
					<stop  offset="0" style="stop-color:#A1D9F7"/>
					<stop  offset="1" style="stop-color:#D2ECFC"/>
				</linearGradient>
				<path class="st22" d="M197.8,476.6H-73c-4.1,0-7.4-3.3-7.4-7.4l0,0c0-4.1,3.3-7.4,7.4-7.4h270.8c4.1,0,7.4,3.3,7.4,7.4l0,0
					C205.2,473.3,201.8,476.6,197.8,476.6z"/>
				
					<linearGradient id="SVGID_19_" gradientUnits="userSpaceOnUse" x1="156.0834" y1="2.5229" x2="180.3578" y2="-63.526" gradientTransform="matrix(1 0 0 -1 0 442)">
					<stop  offset="0" style="stop-color:#A1D9F7"/>
					<stop  offset="1" style="stop-color:#D2ECFC"/>
				</linearGradient>
				<path class="st23" d="M278.7,487.6H63.3c-4.1,0-7.4-3.3-7.4-7.4l0,0c0-4.1,3.3-7.4,7.4-7.4h215.5c4.1,0,7.4,3.3,7.4,7.4l0,0
					C286.2,484.3,282.8,487.6,278.7,487.6z"/>
				
					<linearGradient id="SVGID_20_" gradientUnits="userSpaceOnUse" x1="147.9306" y1="-0.474" x2="172.2047" y2="-66.522" gradientTransform="matrix(1 0 0 -1 0 442)">
					<stop  offset="0" style="stop-color:#A1D9F7"/>
					<stop  offset="1" style="stop-color:#D2ECFC"/>
				</linearGradient>
				<path class="st24" d="M200.2,500.4h-67.4c-4.1,0-7.4-3.3-7.4-7.4l0,0c0-4.1,3.3-7.4,7.4-7.4h67.4c4.1,0,7.4,3.3,7.4,7.4l0,0
					C207.6,497.1,204.3,500.4,200.2,500.4z"/>
				
					<linearGradient id="SVGID_21_" gradientUnits="userSpaceOnUse" x1="80.3404" y1="-25.3148" x2="104.6146" y2="-91.3628" gradientTransform="matrix(1 0 0 -1 0 442)">
					<stop  offset="0" style="stop-color:#A1D9F7"/>
					<stop  offset="1" style="stop-color:#D2ECFC"/>
				</linearGradient>
				<path class="st25" d="M130.5,519.5H63.1c-4.1,0-7.4-3.3-7.4-7.4l0,0c0-4.1,3.3-7.4,7.4-7.4h67.4c4.1,0,7.4,3.3,7.4,7.4l0,0
					C137.9,516.1,134.6,519.5,130.5,519.5z"/>
				
					<linearGradient id="SVGID_22_" gradientUnits="userSpaceOnUse" x1="14.9701" y1="-49.3397" x2="39.2442" y2="-115.3878" gradientTransform="matrix(1 0 0 -1 0 442)">
					<stop  offset="0" style="stop-color:#A1D9F7"/>
					<stop  offset="1" style="stop-color:#D2ECFC"/>
				</linearGradient>
				<path class="st26" d="M34.9,519.5H10.4c-4.1,0-7.4-3.3-7.4-7.4l0,0c0-4.1,3.3-7.4,7.4-7.4h24.4c4.1,0,7.4,3.3,7.4,7.4l0,0
					C42.3,516.1,39,519.5,34.9,519.5z"/>
				
					<linearGradient id="SVGID_23_" gradientUnits="userSpaceOnUse" x1="287.8302" y1="52.7828" x2="312.5447" y2="-14.4635" gradientTransform="matrix(1 0 0 -1 0 442)">
					<stop  offset="0" style="stop-color:#A1D9F7"/>
					<stop  offset="1" style="stop-color:#D2ECFC"/>
				</linearGradient>
				<path class="st27" d="M334.2,487.6h-25.9c-3.7,0-6.7-3-6.7-6.7v-1.5c0-3.7,3-6.7,6.7-6.7h25.9c3.7,0,6.7,3,6.7,6.7v1.5
					C340.9,484.6,337.9,487.6,334.2,487.6z"/>
				
					<linearGradient id="SVGID_24_" gradientUnits="userSpaceOnUse" x1="197.1572" y1="17.6206" x2="221.432" y2="-48.4292" gradientTransform="matrix(1 0 0 -1 0 442)">
					<stop  offset="0" style="stop-color:#A1D9F7"/>
					<stop  offset="1" style="stop-color:#D2ECFC"/>
				</linearGradient>
				<path class="st28" d="M266,527.4h-67.4c-4.1,0-7.4-3.3-7.4-7.4l0,0c0-4.1,3.3-7.4,7.4-7.4H266c4.1,0,7.4,3.3,7.4,7.4l0,0
					C273.4,524,270.1,527.4,266,527.4z"/>
				<path class="st29" d="M332.5,438.2H-53.1c-3.7,0-6.8,2.8-7.3,6.4H340C339.4,441,336.3,438.2,332.5,438.2z"/>
			</g>
			<g>
				<path class="st30" d="M25.8,462.3H-3.7c-1.8,0-3.2,1.5-3.2,3.2s1.5,3.2,3.2,3.2h29.5c1.8,0,3.2-1.5,3.2-3.2
					S27.6,462.3,25.8,462.3z"/>
				<path class="st30" d="M43.1,457.1H23.4c-1.8,0-3.2,1.5-3.2,3.2s1.5,3.2,3.2,3.2h19.7c1.8,0,3.2-1.5,3.2-3.2
					S44.9,457.1,43.1,457.1z"/>
				<path class="st30" d="M101.6,465.1H72.1c-1.8,0-3.2,1.5-3.2,3.2s1.5,3.2,3.2,3.2h29.5c1.8,0,3.2-1.5,3.2-3.2
					S103.4,465.1,101.6,465.1z"/>
				<path class="st30" d="M194.1,475.9H170c-1.8,0-3.2,1.5-3.2,3.2c0,1.8,1.5,3.2,3.2,3.2h24.1c1.8,0,3.2-1.5,3.2-3.2
					S195.9,475.9,194.1,475.9z"/>
				<path class="st30" d="M176.4,470.7h-29.5c-1.8,0-3.2,1.5-3.2,3.2c0,1.8,1.5,3.2,3.2,3.2h29.5c1.8,0,3.2-1.5,3.2-3.2
					C179.6,472.1,178.2,470.7,176.4,470.7z"/>
				<path class="st30" d="M120.6,465.1h-9.9c-1.8,0-3.2,1.5-3.2,3.2s1.5,3.2,3.2,3.2h9.9c1.8,0,3.2-1.5,3.2-3.2
					S122.4,465.1,120.6,465.1z"/>
				<path class="st30" d="M220.4,455.7h29.5c1.8,0,3.2,1.5,3.2,3.2s-1.5,3.2-3.2,3.2h-29.5c-1.8,0-3.2-1.5-3.2-3.2
					S218.6,455.7,220.4,455.7z"/>
				<path class="st30" d="M201.5,455.7h9.9c1.8,0,3.2,1.5,3.2,3.2s-1.5,3.2-3.2,3.2h-9.9c-1.8,0-3.2-1.5-3.2-3.2
					S199.7,455.7,201.5,455.7z"/>
				<path class="st30" d="M88.7,451.4h9.9c1.8,0,3.2,1.5,3.2,3.2s-1.5,3.2-3.2,3.2h-9.9c-1.8,0-3.2-1.5-3.2-3.2
					S86.9,451.4,88.7,451.4z"/>
			</g>
		</g>
		<g>
			<g>
				<rect x="122.7" y="390.4" class="st31" width="0.5" height="2.1"/>
				<rect x="129.4" y="390.4" class="st31" width="0.5" height="2.1"/>
				<path class="st1" d="M119.7,390.5h13.6c0.2,0,0.4-0.2,0.4-0.4v-10.6c0-0.2-0.2-0.4-0.4-0.4h-13.6c-0.2,0-0.4,0.2-0.4,0.4v10.6
					C119.3,390.3,119.5,390.5,119.7,390.5z"/>
				<rect x="119.8" y="379.8" class="st32" width="13.4" height="9.9"/>
				<g>
					<rect x="120" y="380.1" class="st33" width="2.2" height="4.7"/>
					<rect x="122.2" y="380.1" class="st34" width="2.2" height="4.7"/>
					<rect x="124.3" y="380.1" class="st33" width="2.2" height="4.7"/>
					<rect x="126.5" y="380.1" class="st34" width="2.2" height="4.7"/>
					<rect x="120" y="384.8" class="st34" width="2.2" height="4.7"/>
					<rect x="122.2" y="384.8" class="st33" width="2.2" height="4.7"/>
					<rect x="124.3" y="384.8" class="st34" width="2.2" height="4.7"/>
					<rect x="126.5" y="384.8" class="st33" width="2.2" height="4.7"/>
					<rect x="128.7" y="380.1" class="st33" width="2.2" height="4.7"/>
					<rect x="130.8" y="380.1" class="st34" width="2.2" height="4.7"/>
					<rect x="128.7" y="384.8" class="st34" width="2.2" height="4.7"/>
					<rect x="130.8" y="384.8" class="st33" width="2.2" height="4.7"/>
				</g>
			</g>
			<g>
				<rect x="141.8" y="374.8" class="st31" width="0.4" height="1.7"/>
				<rect x="147.3" y="374.8" class="st31" width="0.4" height="1.7"/>
				<path class="st1" d="M139.4,374.8h11c0.2,0,0.4-0.2,0.4-0.4v-8.6c0-0.2-0.2-0.4-0.4-0.4h-11c-0.2,0-0.4,0.2-0.4,0.4v8.6
					C139,374.6,139.2,374.8,139.4,374.8z"/>
				<rect x="139.4" y="366" class="st32" width="11" height="8.2"/>
				<g>
					<rect x="139.6" y="366.2" class="st33" width="1.8" height="3.9"/>
					<rect x="141.3" y="366.2" class="st34" width="1.8" height="3.9"/>
					<rect x="143.1" y="366.2" class="st33" width="1.8" height="3.9"/>
					<rect x="144.9" y="366.2" class="st34" width="1.8" height="3.9"/>
					<rect x="139.6" y="370.1" class="st34" width="1.8" height="3.9"/>
					<rect x="141.3" y="370.1" class="st33" width="1.8" height="3.9"/>
					<rect x="143.1" y="370.1" class="st34" width="1.8" height="3.9"/>
					<rect x="144.9" y="370.1" class="st33" width="1.8" height="3.9"/>
					<rect x="146.7" y="366.2" class="st33" width="1.8" height="3.9"/>
					<rect x="148.4" y="366.2" class="st34" width="1.8" height="3.9"/>
					<rect x="146.7" y="370.1" class="st34" width="1.8" height="3.9"/>
					<rect x="148.4" y="370.1" class="st33" width="1.8" height="3.9"/>
				</g>
			</g>
			<g>
				<rect x="3.1" y="370.7" class="st31" width="0.4" height="1.7"/>
				<rect x="8.6" y="370.7" class="st31" width="0.4" height="1.7"/>
				<path class="st1" d="M0.7,370.7h11c0.2,0,0.4-0.2,0.4-0.4v-8.6c0-0.2-0.2-0.4-0.4-0.4h-11c-0.2,0-0.4,0.2-0.4,0.4v8.6
					C0.3,370.6,0.5,370.7,0.7,370.7z"/>
				<rect x="0.7" y="362" class="st32" width="11" height="8.2"/>
				<g>
					<rect x="0.9" y="362.2" class="st33" width="1.8" height="3.9"/>
					<rect x="2.7" y="362.2" class="st34" width="1.8" height="3.9"/>
					<rect x="4.5" y="362.2" class="st33" width="1.8" height="3.9"/>
					<rect x="6.2" y="362.2" class="st34" width="1.8" height="3.9"/>
					<rect x="0.9" y="366" class="st34" width="1.8" height="3.9"/>
					<rect x="2.7" y="366" class="st33" width="1.8" height="3.9"/>
					<rect x="4.5" y="366" class="st34" width="1.8" height="3.9"/>
					<rect x="6.2" y="366" class="st33" width="1.8" height="3.9"/>
					<rect x="8" y="362.2" class="st33" width="1.8" height="3.9"/>
					<rect x="9.8" y="362.2" class="st34" width="1.8" height="3.9"/>
					<rect x="8" y="366" class="st34" width="1.8" height="3.9"/>
					<rect x="9.8" y="366" class="st33" width="1.8" height="3.9"/>
				</g>
			</g>
			<g>
				<rect x="156.5" y="374.8" class="st31" width="0.4" height="1.7"/>
				<rect x="162.1" y="374.8" class="st31" width="0.4" height="1.7"/>
				<path class="st1" d="M154.2,374.8h11c0.2,0,0.4-0.2,0.4-0.4v-8.6c0-0.2-0.2-0.4-0.4-0.4h-11c-0.2,0-0.4,0.2-0.4,0.4v8.6
					C153.8,374.6,153.9,374.8,154.2,374.8z"/>
				<rect x="154.2" y="366" class="st32" width="11" height="8.2"/>
				<g>
					<rect x="154.3" y="366.2" class="st33" width="1.8" height="3.9"/>
					<rect x="156.1" y="366.2" class="st34" width="1.8" height="3.9"/>
					<rect x="157.9" y="366.2" class="st33" width="1.8" height="3.9"/>
					<rect x="159.7" y="366.2" class="st34" width="1.8" height="3.9"/>
					<rect x="154.3" y="370.1" class="st34" width="1.8" height="3.9"/>
					<rect x="156.1" y="370.1" class="st33" width="1.8" height="3.9"/>
					<rect x="157.9" y="370.1" class="st34" width="1.8" height="3.9"/>
					<rect x="159.7" y="370.1" class="st33" width="1.8" height="3.9"/>
					<rect x="161.4" y="366.2" class="st33" width="1.8" height="3.9"/>
					<rect x="163.2" y="366.2" class="st34" width="1.8" height="3.9"/>
					<rect x="161.4" y="370.1" class="st34" width="1.8" height="3.9"/>
					<rect x="163.2" y="370.1" class="st33" width="1.8" height="3.9"/>
				</g>
			</g>
			<g>
				
					<linearGradient id="SVGID_25_" gradientUnits="userSpaceOnUse" x1="177.4731" y1="29.5321" x2="207.1383" y2="49.3089" gradientTransform="matrix(1 0 0 -1 0 442)">
					<stop  offset="0" style="stop-color:#F49D79"/>
					<stop  offset="1" style="stop-color:#F8B883"/>
				</linearGradient>
				<polygon class="st35" points="175.8,386.9 191.8,372.7 207.9,386.9 207.9,422.4 175.8,422.4 				"/>
				<polygon class="st36" points="191.8,372.7 175.8,386.9 175.8,389.5 191.8,375.3 207.9,389.5 207.9,386.9 				"/>
				<polygon class="st37" points="191.8,372.7 173.6,388.8 173.6,387.2 191.8,371 				"/>
				<polygon class="st37" points="191.8,372.7 210.1,388.9 210.1,387.2 191.8,371 				"/>
				<rect x="179.4" y="387.7" class="st38" width="6.6" height="7.6"/>
				<rect x="188.2" y="387.7" class="st38" width="6.6" height="7.6"/>
				<rect x="179.4" y="404" class="st38" width="6.6" height="7.6"/>
				<rect x="188.2" y="404" class="st38" width="6.6" height="7.6"/>
				<rect x="198.8" y="406.1" class="st38" width="6.6" height="16.2"/>
				<rect x="197" y="387.7" class="st38" width="6.6" height="7.6"/>
				
					<linearGradient id="SVGID_26_" gradientUnits="userSpaceOnUse" x1="182.65" y1="47" x2="182.65" y2="51.5483" gradientTransform="matrix(1 0 0 -1 0 442)">
					<stop  offset="0" style="stop-color:#3AA7CF"/>
					<stop  offset="1" style="stop-color:#93D5F6"/>
				</linearGradient>
				<rect x="179.8" y="388.2" class="st39" width="5.7" height="6.8"/>
				<rect x="179.4" y="394.4" class="st37" width="6.6" height="1.1"/>
				
					<linearGradient id="SVGID_27_" gradientUnits="userSpaceOnUse" x1="191.55" y1="47" x2="191.55" y2="51.5483" gradientTransform="matrix(1 0 0 -1 0 442)">
					<stop  offset="0" style="stop-color:#3AA7CF"/>
					<stop  offset="1" style="stop-color:#93D5F6"/>
				</linearGradient>
				<rect x="188.7" y="388.2" class="st40" width="5.7" height="6.8"/>
				
					<linearGradient id="SVGID_28_" gradientUnits="userSpaceOnUse" x1="200.35" y1="47" x2="200.35" y2="51.5483" gradientTransform="matrix(1 0 0 -1 0 442)">
					<stop  offset="0" style="stop-color:#3AA7CF"/>
					<stop  offset="1" style="stop-color:#93D5F6"/>
				</linearGradient>
				<rect x="197.5" y="388.2" class="st41" width="5.7" height="6.8"/>
				<rect x="199.2" y="406.5" class="st37" width="5.7" height="15.9"/>
				<rect x="188.2" y="394.4" class="st37" width="6.6" height="1.1"/>
				
					<linearGradient id="SVGID_29_" gradientUnits="userSpaceOnUse" x1="182.65" y1="30.585" x2="182.65" y2="35.1333" gradientTransform="matrix(1 0 0 -1 0 442)">
					<stop  offset="0" style="stop-color:#3AA7CF"/>
					<stop  offset="1" style="stop-color:#93D5F6"/>
				</linearGradient>
				<rect x="179.8" y="404.6" class="st42" width="5.7" height="6.8"/>
				<rect x="179.4" y="410.8" class="st37" width="6.6" height="1.1"/>
				
					<linearGradient id="SVGID_30_" gradientUnits="userSpaceOnUse" x1="191.55" y1="30.585" x2="191.55" y2="35.1333" gradientTransform="matrix(1 0 0 -1 0 442)">
					<stop  offset="0" style="stop-color:#3AA7CF"/>
					<stop  offset="1" style="stop-color:#93D5F6"/>
				</linearGradient>
				<rect x="188.7" y="404.6" class="st43" width="5.7" height="6.8"/>
				<rect x="188.2" y="410.8" class="st37" width="6.6" height="1.1"/>
				<rect x="197" y="394.4" class="st37" width="6.6" height="1.1"/>
			</g>
			<g>
				
					<linearGradient id="SVGID_31_" gradientUnits="userSpaceOnUse" x1="170.19" y1="34.4386" x2="182.2696" y2="46.0326" gradientTransform="matrix(1 0 0 -1 0 442)">
					<stop  offset="0" style="stop-color:#70B62C"/>
					<stop  offset="1" style="stop-color:#B4CC0E"/>
				</linearGradient>
				<path class="st44" d="M170.1,393.4c-6.1,6.1-6.9,13-6.2,16.4c0.7,3.6,4.9,6.1,9.2,5.9c3.8-0.2,8.2-2.2,7.8-8.4
					c-0.4-6.2-3.6-11.8-5.8-13.9C173.1,391.3,172,391.5,170.1,393.4z"/>
				<path class="st45" d="M168.5,395.2c-4.6,5.6-5.2,11.6-4.6,14.6c0.7,3.6,4.9,6.1,9.2,5.9c3.5-0.2,7.5-1.9,7.8-7
					C172.9,416.8,164.2,407.8,168.5,395.2z"/>
				<g>
					<polygon class="st46" points="172.4,405.5 171.8,422.8 172.8,422.8 					"/>
					<polygon class="st46" points="169.1,410.3 172.2,414.8 172.3,413.8 					"/>
					<polygon class="st46" points="172.3,411.4 172.3,412.2 175.6,409.7 					"/>
				</g>
			</g>
			<g>
				
					<linearGradient id="SVGID_32_" gradientUnits="userSpaceOnUse" x1="119.9923" y1="21.028" x2="132.469" y2="38.5573" gradientTransform="matrix(1 0 0 -1 0 442)">
					<stop  offset="0" style="stop-color:#FCBE00"/>
					<stop  offset="1" style="stop-color:#FFDD5A"/>
				</linearGradient>
				<rect x="117.5" y="392.1" class="st47" width="21.6" height="34.4"/>
				<rect x="117.5" y="392.1" class="st48" width="21.6" height="2.2"/>
				<rect x="117.5" y="408.4" class="st48" width="21.6" height="2.2"/>
				<rect x="121.1" y="396.4" class="st48" width="5.2" height="9.5"/>
				<rect x="130.5" y="396.4" class="st48" width="5.2" height="9.5"/>
				<rect x="121.1" y="411.1" class="st48" width="5.2" height="9.5"/>
				<rect x="130.5" y="411.1" class="st48" width="5.2" height="9.5"/>
				
					<linearGradient id="SVGID_33_" gradientUnits="userSpaceOnUse" x1="123.75" y1="36.5811" x2="123.75" y2="40.6835" gradientTransform="matrix(1 0 0 -1 0 442)">
					<stop  offset="0" style="stop-color:#3AA7CF"/>
					<stop  offset="1" style="stop-color:#93D5F6"/>
				</linearGradient>
				<rect x="121.4" y="396.7" class="st49" width="4.7" height="9"/>
				
					<linearGradient id="SVGID_34_" gradientUnits="userSpaceOnUse" x1="133.15" y1="36.5811" x2="133.15" y2="40.6835" gradientTransform="matrix(1 0 0 -1 0 442)">
					<stop  offset="0" style="stop-color:#3AA7CF"/>
					<stop  offset="1" style="stop-color:#93D5F6"/>
				</linearGradient>
				<rect x="130.8" y="396.7" class="st50" width="4.7" height="9"/>
				
					<linearGradient id="SVGID_35_" gradientUnits="userSpaceOnUse" x1="123.75" y1="22.6875" x2="123.75" y2="27.2847" gradientTransform="matrix(1 0 0 -1 0 442)">
					<stop  offset="0" style="stop-color:#3AA7CF"/>
					<stop  offset="1" style="stop-color:#93D5F6"/>
				</linearGradient>
				<rect x="121.4" y="411.4" class="st51" width="4.7" height="9"/>
				
					<linearGradient id="SVGID_36_" gradientUnits="userSpaceOnUse" x1="133.15" y1="22.6875" x2="133.15" y2="27.2847" gradientTransform="matrix(1 0 0 -1 0 442)">
					<stop  offset="0" style="stop-color:#3AA7CF"/>
					<stop  offset="1" style="stop-color:#93D5F6"/>
				</linearGradient>
				<rect x="130.8" y="411.4" class="st52" width="4.7" height="9"/>
				<rect x="116.9" y="392.1" class="st53" width="22.8" height="1.1"/>
				<rect x="116.9" y="407.7" class="st53" width="22.8" height="1.1"/>
			</g>
			<g>
				
					<linearGradient id="SVGID_37_" gradientUnits="userSpaceOnUse" x1="141.34" y1="25.098" x2="158.8836" y2="49.746" gradientTransform="matrix(1 0 0 -1 0 442)">
					<stop  offset="0" style="stop-color:#FCBE00"/>
					<stop  offset="1" style="stop-color:#FFDD5A"/>
				</linearGradient>
				<rect x="137.9" y="376.3" class="st54" width="30.3" height="48.3"/>
				<rect x="137.9" y="376.3" class="st48" width="30.3" height="3"/>
				<rect x="137.9" y="399.2" class="st48" width="30.3" height="3"/>
				<rect x="142.9" y="382.4" class="st48" width="7.3" height="13.4"/>
				<rect x="156.1" y="382.4" class="st48" width="7.3" height="13.4"/>
				<rect x="142.9" y="403" class="st48" width="7.3" height="13.4"/>
				<rect x="156.1" y="403" class="st48" width="7.3" height="13.4"/>
				
					<linearGradient id="SVGID_38_" gradientUnits="userSpaceOnUse" x1="146.55" y1="46.9229" x2="146.55" y2="52.691" gradientTransform="matrix(1 0 0 -1 0 442)">
					<stop  offset="0" style="stop-color:#3AA7CF"/>
					<stop  offset="1" style="stop-color:#93D5F6"/>
				</linearGradient>
				<rect x="143.3" y="382.8" class="st55" width="6.5" height="12.6"/>
				
					<linearGradient id="SVGID_39_" gradientUnits="userSpaceOnUse" x1="159.75" y1="46.9229" x2="159.75" y2="52.691" gradientTransform="matrix(1 0 0 -1 0 442)">
					<stop  offset="0" style="stop-color:#3AA7CF"/>
					<stop  offset="1" style="stop-color:#93D5F6"/>
				</linearGradient>
				<rect x="156.5" y="382.8" class="st56" width="6.5" height="12.6"/>
				
					<linearGradient id="SVGID_40_" gradientUnits="userSpaceOnUse" x1="146.55" y1="27.3877" x2="146.55" y2="33.8517" gradientTransform="matrix(1 0 0 -1 0 442)">
					<stop  offset="0" style="stop-color:#3AA7CF"/>
					<stop  offset="1" style="stop-color:#93D5F6"/>
				</linearGradient>
				<rect x="143.3" y="403.4" class="st57" width="6.5" height="12.6"/>
				
					<linearGradient id="SVGID_41_" gradientUnits="userSpaceOnUse" x1="159.75" y1="27.3877" x2="159.75" y2="33.8517" gradientTransform="matrix(1 0 0 -1 0 442)">
					<stop  offset="0" style="stop-color:#3AA7CF"/>
					<stop  offset="1" style="stop-color:#93D5F6"/>
				</linearGradient>
				<rect x="156.5" y="403.4" class="st58" width="6.5" height="12.6"/>
				<rect x="137" y="376.3" class="st53" width="32.1" height="1.6"/>
				<rect x="137" y="398.3" class="st53" width="32.1" height="1.6"/>
			</g>
			<g>
				
					<linearGradient id="SVGID_42_" gradientUnits="userSpaceOnUse" x1="-11.7422" y1="29.623" x2="5.8013" y2="54.2708" gradientTransform="matrix(1 0 0 -1 0 442)">
					<stop  offset="0" style="stop-color:#FCBE00"/>
					<stop  offset="1" style="stop-color:#FFDD5A"/>
				</linearGradient>
				<rect x="-15.2" y="371.8" class="st59" width="30.3" height="48.3"/>
				<rect x="-15.2" y="371.8" class="st48" width="30.3" height="3"/>
				<rect x="-15.2" y="394.7" class="st48" width="30.3" height="3"/>
				<rect x="-10.2" y="377.9" class="st48" width="7.3" height="13.4"/>
				<rect x="3.1" y="377.9" class="st48" width="7.3" height="13.4"/>
				<rect x="-10.2" y="398.5" class="st48" width="7.3" height="13.4"/>
				<rect x="3.1" y="398.5" class="st48" width="7.3" height="13.4"/>
				
					<linearGradient id="SVGID_43_" gradientUnits="userSpaceOnUse" x1="-6.55" y1="51.4541" x2="-6.55" y2="57.2223" gradientTransform="matrix(1 0 0 -1 0 442)">
					<stop  offset="0" style="stop-color:#3AA7CF"/>
					<stop  offset="1" style="stop-color:#93D5F6"/>
				</linearGradient>
				<rect x="-9.8" y="378.3" class="st60" width="6.5" height="12.6"/>
				
					<linearGradient id="SVGID_44_" gradientUnits="userSpaceOnUse" x1="6.75" y1="51.4541" x2="6.75" y2="57.2223" gradientTransform="matrix(1 0 0 -1 0 442)">
					<stop  offset="0" style="stop-color:#3AA7CF"/>
					<stop  offset="1" style="stop-color:#93D5F6"/>
				</linearGradient>
				<rect x="3.5" y="378.3" class="st61" width="6.5" height="12.6"/>
				
					<linearGradient id="SVGID_45_" gradientUnits="userSpaceOnUse" x1="-6.55" y1="31.918" x2="-6.55" y2="38.3825" gradientTransform="matrix(1 0 0 -1 0 442)">
					<stop  offset="0" style="stop-color:#3AA7CF"/>
					<stop  offset="1" style="stop-color:#93D5F6"/>
				</linearGradient>
				<rect x="-9.8" y="398.9" class="st62" width="6.5" height="12.6"/>
				
					<linearGradient id="SVGID_46_" gradientUnits="userSpaceOnUse" x1="6.75" y1="31.918" x2="6.75" y2="38.3825" gradientTransform="matrix(1 0 0 -1 0 442)">
					<stop  offset="0" style="stop-color:#3AA7CF"/>
					<stop  offset="1" style="stop-color:#93D5F6"/>
				</linearGradient>
				<rect x="3.5" y="398.9" class="st63" width="6.5" height="12.6"/>
				<rect x="-16.1" y="371.8" class="st53" width="32.1" height="1.6"/>
				<rect x="-16.1" y="393.8" class="st53" width="32.1" height="1.6"/>
			</g>
		</g>
		<g>
			
				<linearGradient id="SVGID_47_" gradientUnits="userSpaceOnUse" x1="-70.6" y1="4.8" x2="360.3" y2="4.8" gradientTransform="matrix(1 0 0 -1 0 442)">
				<stop  offset="0" style="stop-color:#70B62C"/>
				<stop  offset="1" style="stop-color:#B4CC0E"/>
			</linearGradient>
			<path class="st64" d="M357,440.5H-67.3c-1.8,0-3.3-1.5-3.3-3.3l0,0c0-1.8,1.5-3.3,3.3-3.3H357c1.8,0,3.3,1.5,3.3,3.3l0,0
				C360.3,439,358.8,440.5,357,440.5z"/>
			<path class="st65" d="M144.3,434c-13.3,0-193.6,0-210.9,0c15.8-8.2,51.4-19.7,105.4-19.7S130.5,424.6,144.3,434z"/>
			<path class="st65" d="M354.9,434c-13.3,0-193.6,0-210.9,0c15.8-8.2,51.4-19.7,105.4-19.7S341.1,424.6,354.9,434z"/>
			
				<linearGradient id="SVGID_48_" gradientUnits="userSpaceOnUse" x1="99.6" y1="14.25" x2="233.5" y2="14.25" gradientTransform="matrix(1 0 0 -1 0 442)">
				<stop  offset="0" style="stop-color:#70B62C"/>
				<stop  offset="1" style="stop-color:#B4CC0E"/>
			</linearGradient>
			<path class="st66" d="M233.5,434c-8.4,0-122.9,0-133.9,0c10-5.2,32.6-12.5,66.9-12.5S224.7,428,233.5,434z"/>
		</g>
		<g>
			<g>
				<g>
					<circle class="st1" cx="32.5" cy="359.2" r="3.1"/>
					<path class="st1" d="M34.6,347c0,5-2.1,9.1-2.1,9.1s-2.1-4.1-2.1-9.1s2.1-9.1,2.1-9.1S34.6,341.9,34.6,347z"/>
					<path class="st1" d="M26.1,369.8c-3.3,3.8-7.6,5.4-7.6,5.4s1.1-4.4,4.4-8.2s7.6-5.4,7.6-5.4S29.4,366.1,26.1,369.8z"/>
					<path class="st1" d="M43.9,364.3c-4.8-1.4-8.2-4.5-8.2-4.5s4.5-0.9,9.3,0.5c4.8,1.4,8.2,4.5,8.2,4.5S48.7,365.7,43.9,364.3z"/>
				</g>
				<path class="st1" d="M31.1,415.6c0,0-0.1,0.4,2,0.4c2.2,0,2.1-0.4,2.1-0.4l-2.5-54.7L31.1,415.6z"/>
			</g>
			<g>
				<g>
					<circle class="st1" cx="275.3" cy="344.6" r="3.9"/>
					<path class="st1" d="M277.9,329.2c0,6.3-2.6,11.4-2.6,11.4s-2.6-5.1-2.6-11.4s2.6-11.4,2.6-11.4S277.9,322.9,277.9,329.2z"/>
					<path class="st1" d="M267.3,358c-4.2,4.7-9.5,6.8-9.5,6.8s1.4-5.6,5.6-10.3s9.5-6.8,9.5-6.8S271.4,353.3,267.3,358z"/>
					<path class="st1" d="M289.6,351c-6.1-1.8-10.2-5.7-10.2-5.7s5.6-1.1,11.7,0.7c6.1,1.8,10.2,5.7,10.2,5.7S295.7,352.7,289.6,351
						z"/>
				</g>
				<path class="st1" d="M273.5,415.5c0,0-0.2,0.5,2.6,0.5c2.7,0,2.7-0.5,2.7-0.5l-3.1-68.8L273.5,415.5z"/>
			</g>
			<g>
				<g>
					<circle class="st1" cx="46.5" cy="382.9" r="1.8"/>
					<path class="st1" d="M47.7,375.9c0,2.9-1.2,5.3-1.2,5.3s-1.2-2.4-1.2-5.3s1.2-5.3,1.2-5.3S47.7,373,47.7,375.9z"/>
					<path class="st1" d="M42.8,389.1c-1.9,2.2-4.4,3.2-4.4,3.2s0.7-2.6,2.6-4.7c1.9-2.2,4.4-3.2,4.4-3.2S44.8,386.9,42.8,389.1z"/>
					<path class="st1" d="M53.1,385.9c-2.8-0.8-4.7-2.6-4.7-2.6s2.6-0.5,5.4,0.3c2.8,0.8,4.7,2.6,4.7,2.6S55.9,386.7,53.1,385.9z"/>
				</g>
				<path class="st1" d="M45.7,415.6c0,0-0.1,0.2,1.2,0.2c1.3,0,1.2-0.2,1.2-0.2l-1.4-31.7L45.7,415.6z"/>
			</g>
			<g>
				<g>
					<circle class="st1" cx="288.8" cy="380.8" r="2.1"/>
					<path class="st1" d="M290.2,372.5c0,3.4-1.4,6.2-1.4,6.2s-1.4-2.8-1.4-6.2s1.4-6.1,1.4-6.1S290.2,369.1,290.2,372.5z"/>
					<path class="st1" d="M284.5,388c-2.2,2.5-5.1,3.7-5.1,3.7s0.8-3,3-5.5s5.1-3.7,5.1-3.7S286.7,385.5,284.5,388z"/>
					<path class="st1" d="M296.5,384.2c-3.3-0.9-5.5-3.1-5.5-3.1s3-0.6,6.3,0.4s5.5,3.1,5.5,3.1S299.7,385.2,296.5,384.2z"/>
				</g>
				<path class="st1" d="M287.8,419c0,0-0.1,0.2,1.4,0.2s1.4-0.2,1.4-0.2l-1.7-37L287.8,419z"/>
			</g>
		</g>
		<g>
			<g>
				
					<linearGradient id="SVGID_49_" gradientUnits="userSpaceOnUse" x1="-21.3186" y1="66.1065" x2="18.9054" y2="104.7136" gradientTransform="matrix(1 0 0 -1 0 442)">
					<stop  offset="0" style="stop-color:#70B62C"/>
					<stop  offset="1" style="stop-color:#B4CC0E"/>
				</linearGradient>
				<path class="st67" d="M-17.4,326c-9.1,24.4-10.3,51.8-9.3,65.3c1.1,14.3,7.3,24.3,13.8,23.4c5.7-0.8,12.2-8.6,11.6-33.4
					c-0.5-24.8-5.4-46.7-8.6-55.3C-13,317.8-14.6,318.4-17.4,326z"/>
				<path class="st45" d="M-19.9,333.1c-6.9,22.4-7.8,46-6.9,58.2c1.1,14.3,7.3,24.3,13.8,23.4c5.3-0.8,11.1-7.4,11.6-27.8
					C-13.2,418.9-26.1,383.3-19.9,333.1z"/>
				<g>
					<polygon class="st46" points="-13.8,386.7 -15.5,434 -12.7,434 					"/>
					<polygon class="st46" points="-18.7,405.4 -14.3,412.2 -14,409.4 					"/>
					<polygon class="st46" points="-14,403 -14,405.1 -9,398.7 					"/>
				</g>
			</g>
			<g>
				<g>
					<path class="st46" d="M323,386.7"/>
					<line class="st46" x1="321.3" y1="434" x2="324.1" y2="434"/>
					<path class="st46" d="M322.5,412.2"/>
					<path class="st46" d="M318.1,405.4"/>
				</g>
			</g>
			<g>
				
					<linearGradient id="SVGID_50_" gradientUnits="userSpaceOnUse" x1="81.7655" y1="35.8635" x2="99.3834" y2="52.7732" gradientTransform="matrix(1 0 0 -1 0 442)">
					<stop  offset="0" style="stop-color:#70B62C"/>
					<stop  offset="1" style="stop-color:#B4CC0E"/>
				</linearGradient>
				<path class="st68" d="M83.5,384.3c-4,10.7-4.5,22.7-4.1,28.6c0.5,6.3,3.2,10.6,6,10.2c2.5-0.4,5.3-3.8,5.1-14.6
					s-2.3-20.5-3.8-24.2C85.5,380.8,84.8,381,83.5,384.3z"/>
				<path class="st45" d="M82.5,387.5c-3,9.8-3.4,20.1-3,25.5c0.5,6.3,3.2,10.6,6,10.2c2.3-0.3,4.9-3.2,5.1-12.2
					C85.4,425,79.7,409.5,82.5,387.5z"/>
				<g>
					<polygon class="st46" points="85.1,410.9 84.4,431.7 85.6,431.7 					"/>
					<polygon class="st46" points="83,419.1 84.9,422.1 85,420.9 					"/>
					<polygon class="st46" points="85,418.1 85,419 87.2,416.2 					"/>
				</g>
			</g>
			<g>
				
					<linearGradient id="SVGID_51_" gradientUnits="userSpaceOnUse" x1="65.1688" y1="53.9985" x2="92.7827" y2="80.5023" gradientTransform="matrix(1 0 0 -1 0 442)">
					<stop  offset="0" style="stop-color:#70B62C"/>
					<stop  offset="1" style="stop-color:#B4CC0E"/>
				</linearGradient>
				<path class="st69" d="M67.9,353.8c-6.3,16.7-7.1,35.6-6.4,44.8c0.7,9.8,5,16.7,9.4,16c3.9-0.6,8.3-5.9,8-22.9
					c-0.4-17-3.7-32.1-5.9-38C70.9,348.2,69.9,348.6,67.9,353.8z"/>
				<path class="st45" d="M66.2,358.7c-4.8,15.4-5.3,31.6-4.7,39.9c0.7,9.8,5,16.7,9.4,16c3.6-0.5,7.6-5.1,8-19.1
					C70.8,417.6,61.9,393.2,66.2,358.7z"/>
				<g>
					<polygon class="st46" points="70.4,395.5 69.2,427.9 71.1,427.9 					"/>
					<polygon class="st46" points="67,408.3 70.1,413 70.3,411.1 					"/>
					<polygon class="st46" points="70.3,406.7 70.3,408.1 73.7,403.7 					"/>
				</g>
			</g>
			<g>
				
					<linearGradient id="SVGID_52_" gradientUnits="userSpaceOnUse" x1="-53.1925" y1="49.5641" x2="-20.2301" y2="81.2014" gradientTransform="matrix(1 0 0 -1 0 442)">
					<stop  offset="0" style="stop-color:#70B62C"/>
					<stop  offset="1" style="stop-color:#B4CC0E"/>
				</linearGradient>
				<path class="st70" d="M-53.5,353.8c-16.7,16.7-18.9,35.6-17,44.9c2,9.8,13.4,16.7,25.2,16c10.5-0.6,22.3-5.9,21.3-22.9
					s-9.8-32.1-15.7-38C-45.3,348.2-48.2,348.5-53.5,353.8z"/>
				<path class="st45" d="M-57.9,358.6c-12.7,15.4-14.3,31.6-12.6,40c2,9.8,13.4,16.7,25.2,16c9.6-0.5,20.4-5.1,21.3-19.1
					C-45.7,417.6-69.4,393.2-57.9,358.6z"/>
				<g>
					<polygon class="st46" points="-47.2,386.7 -48.9,434 -46.1,434 					"/>
					<polygon class="st46" points="-56.3,400 -47.6,412.2 -47.3,409.4 					"/>
					<polygon class="st46" points="-47.3,403 -47.3,405.1 -38.5,398.1 					"/>
				</g>
			</g>
			<g>
				
					<linearGradient id="SVGID_53_" gradientUnits="userSpaceOnUse" x1="226.9182" y1="49.5745" x2="259.8803" y2="81.2115" gradientTransform="matrix(1 0 0 -1 0 442)">
					<stop  offset="0" style="stop-color:#70B62C"/>
					<stop  offset="1" style="stop-color:#B4CC0E"/>
				</linearGradient>
				<path class="st71" d="M226.6,353.8c-16.7,16.7-18.9,35.6-17,44.9c2,9.8,13.4,16.7,25.2,16c10.5-0.6,22.3-5.9,21.3-22.9
					s-9.8-32.1-15.7-38C234.8,348.2,231.9,348.5,226.6,353.8z"/>
				<path class="st45" d="M222.2,358.6c-12.7,15.4-14.3,31.6-12.6,40c2,9.8,13.4,16.7,25.2,16c9.6-0.5,20.4-5.1,21.3-19.1
					C234.4,417.6,210.7,393.2,222.2,358.6z"/>
				<g>
					<polygon class="st46" points="233,386.7 231.3,434 234,434 					"/>
					<polygon class="st46" points="223.8,400 232.5,412.2 232.8,409.4 					"/>
					<polygon class="st46" points="232.8,403 232.8,405.1 241.6,398.1 					"/>
				</g>
			</g>
			<g>
				
					<linearGradient id="SVGID_54_" gradientUnits="userSpaceOnUse" x1="-33.4612" y1="25.7513" x2="-13.2153" y2="45.1833" gradientTransform="matrix(1 0 0 -1 0 442)">
					<stop  offset="0" style="stop-color:#B4CC0E"/>
					<stop  offset="1" style="stop-color:#E2DE00"/>
				</linearGradient>
				<path class="st72" d="M-33.6,392.5c-10.3,10.3-11.6,21.9-10.5,27.5c1.2,6,8.2,10.3,15.5,9.9c6.4-0.4,13.7-3.6,13.1-14.1
					s-6-19.7-9.7-23.3C-28.6,389.1-30.4,389.3-33.6,392.5z"/>
				<path class="st73" d="M-36.4,395.5c-7.8,9.5-8.8,19.4-7.7,24.5c1.2,6,8.2,10.3,15.5,9.9c5.9-0.3,12.5-3.1,13.1-11.7
					C-28.8,431.7-43.4,416.7-36.4,395.5z"/>
				<g>
					<polygon class="st46" points="-29.8,412.7 -30.8,434 -29.1,434 					"/>
					<polygon class="st46" points="-35.4,420.9 -30,428.4 -29.8,426.7 					"/>
					<polygon class="st46" points="-29.8,422.7 -29.8,424 -24.4,419.8 					"/>
				</g>
			</g>
			<g>
				
					<linearGradient id="SVGID_55_" gradientUnits="userSpaceOnUse" x1="252.4786" y1="25.7861" x2="272.7247" y2="45.2184" gradientTransform="matrix(1 0 0 -1 0 442)">
					<stop  offset="0" style="stop-color:#B4CC0E"/>
					<stop  offset="1" style="stop-color:#E2DE00"/>
				</linearGradient>
				<path class="st74" d="M252.3,392.5c-10.3,10.3-11.6,21.9-10.5,27.5c1.2,6,8.2,10.3,15.5,9.9c6.4-0.4,13.7-3.6,13.1-14.1
					c-0.6-10.5-6-19.7-9.7-23.3C257.3,389.1,255.6,389.3,252.3,392.5z"/>
				<path class="st73" d="M249.6,395.5c-7.8,9.5-8.8,19.4-7.7,24.5c1.2,6,8.2,10.3,15.5,9.9c5.9-0.3,12.5-3.1,13.1-11.7
					C257.1,431.7,242.6,416.7,249.6,395.5z"/>
				<g>
					<polygon class="st46" points="256.2,412.7 255.2,434 256.9,434 					"/>
					<polygon class="st46" points="250.6,420.9 255.9,428.4 256.1,426.7 					"/>
					<polygon class="st46" points="256.1,422.7 256.1,424 261.5,419.8 					"/>
				</g>
			</g>
			<g>
				
					<linearGradient id="SVGID_56_" gradientUnits="userSpaceOnUse" x1="73.7284" y1="18.9615" x2="86.1959" y2="30.9278" gradientTransform="matrix(1 0 0 -1 0 442)">
					<stop  offset="0" style="stop-color:#B4CC0E"/>
					<stop  offset="1" style="stop-color:#E2DE00"/>
				</linearGradient>
				<path class="st75" d="M73.6,408.4c-6.3,6.3-7.1,13.5-6.4,17c0.7,3.7,5.1,6.3,9.5,6.1c4-0.2,8.4-2.2,8-8.7s-3.7-12.1-5.9-14.4
					C76.7,406.3,75.6,406.5,73.6,408.4z"/>
				<path class="st73" d="M72,410.3c-4.8,5.8-5.4,12-4.8,15.1c0.7,3.7,5.1,6.3,9.5,6.1c3.6-0.2,7.7-1.9,8-7.2
					C76.6,432.6,67.6,423.3,72,410.3z"/>
				<g>
					<polygon class="st46" points="76,420.9 75.4,434 76.4,434 					"/>
					<polygon class="st46" points="72.6,425.9 75.9,430.5 76,429.5 					"/>
					<polygon class="st46" points="76,427.1 76,427.9 79.3,425.2 					"/>
				</g>
			</g>
		</g>
	</g>
	<g>
		<circle class="st76" cx="47" cy="48.2" r="11.5"/>
		<path class="st76" d="M47,34.6L47,34.6c-0.5,0-1-0.4-1-1v-5.9c0-0.5,0.4-1,1-1l0,0c0.5,0,1,0.4,1,1v5.9C48,34.2,47.6,34.6,47,34.6
			z"/>
		<path class="st76" d="M40.2,36.4L40.2,36.4c-0.5,0.3-1.1,0.1-1.4-0.4L36,31c-0.3-0.5-0.1-1.1,0.4-1.4l0,0c0.5-0.3,1.1-0.1,1.4,0.4
			l2.9,5.1C40.9,35.6,40.7,36.2,40.2,36.4z"/>
		<path class="st76" d="M35.3,41.4L35.3,41.4c-0.3,0.5-0.9,0.6-1.4,0.4l-5.1-2.9c-0.5-0.3-0.6-0.9-0.4-1.4l0,0
			c0.3-0.5,0.9-0.6,1.4-0.4l5.1,2.9C35.4,40.3,35.6,40.9,35.3,41.4z"/>
		<path class="st76" d="M33.5,48.2L33.5,48.2c0,0.5-0.4,1-1,1h-5.9c-0.5,0-1-0.4-1-1l0,0c0-0.5,0.4-1,1-1h5.9
			C33,47.2,33.5,47.6,33.5,48.2z"/>
		<path class="st76" d="M35.3,55L35.3,55c0.3,0.5,0.1,1.1-0.4,1.4l-5.1,2.9c-0.5,0.3-1.1,0.1-1.4-0.4l0,0c-0.3-0.5-0.1-1.1,0.4-1.4
			l5.1-2.9C34.4,54.3,35,54.5,35.3,55z"/>
		<path class="st76" d="M40.2,59.9L40.2,59.9c0.5,0.3,0.6,0.9,0.4,1.4l-2.9,5.1c-0.3,0.5-0.9,0.6-1.4,0.4l0,0
			c-0.5-0.3-0.6-0.9-0.4-1.4l2.9-5.1C39.2,59.8,39.8,59.6,40.2,59.9z"/>
		<path class="st76" d="M47,61.7L47,61.7c0.5,0,1,0.4,1,1v5.9c0,0.5-0.4,1-1,1l0,0c-0.5,0-1-0.4-1-1v-5.9C46,62.2,46.5,61.7,47,61.7
			z"/>
		<path class="st76" d="M53.8,59.9L53.8,59.9c0.5-0.3,1.1-0.1,1.4,0.4l2.9,5.1c0.3,0.5,0.1,1.1-0.4,1.4l0,0
			c-0.5,0.3-1.1,0.1-1.4-0.4l-2.9-5.1C53.2,60.8,53.3,60.2,53.8,59.9z"/>
		<path class="st76" d="M58.8,55L58.8,55c0.3-0.5,0.9-0.6,1.4-0.4l5.1,2.9c0.5,0.3,0.6,0.9,0.4,1.4l0,0c-0.3,0.5-0.9,0.6-1.4,0.4
			l-5.1-2.9C58.7,56,58.5,55.4,58.8,55z"/>
		<path class="st76" d="M60.6,48.2L60.6,48.2c0-0.5,0.4-1,1-1h5.9c0.5,0,1,0.4,1,1l0,0c0,0.5-0.4,1-1,1h-5.9
			C61,49.2,60.6,48.7,60.6,48.2z"/>
		<path class="st76" d="M58.8,41.4L58.8,41.4c-0.3-0.5-0.1-1.1,0.4-1.4l5.1-2.9c0.5-0.3,1.1-0.1,1.4,0.4l0,0
			c0.3,0.5,0.1,1.1-0.4,1.4l-5.1,2.9C59.6,42,59,41.9,58.8,41.4z"/>
		<path class="st76" d="M53.8,36.4L53.8,36.4c-0.5-0.3-0.6-0.9-0.4-1.4l2.9-5.1c0.3-0.5,0.9-0.6,1.4-0.4l0,0
			c0.5,0.3,0.6,0.9,0.4,1.4L55.2,36C54.9,36.5,54.3,36.7,53.8,36.4z"/>
	</g>
	<g>
		<g>
			<circle class="st1" cx="74.6" cy="58.9" r="5.8"/>
			<circle class="st77" cx="86.2" cy="52.2" r="11.1"/>
			<circle class="st77" cx="79.9" cy="62.9" r="5.3"/>
			<circle class="st77" cx="97.7" cy="59.3" r="11.1"/>
			<circle class="st77" cx="108.4" cy="60.2" r="6.2"/>
			<circle class="st77" cx="86.2" cy="62" r="8.4"/>
		</g>
		<g>
			<circle class="st1" cx="78.5" cy="79.8" r="2.3"/>
			<circle class="st77" cx="83.1" cy="77.2" r="4.4"/>
			<circle class="st1" cx="80.6" cy="81.4" r="2.1"/>
			<circle class="st77" cx="87.7" cy="80" r="4.4"/>
			<circle class="st77" cx="91.9" cy="80.4" r="2.5"/>
			<circle class="st77" cx="83.1" cy="81.1" r="3.4"/>
		</g>
		<g>
			<circle class="st77" cx="181.3" cy="82.5" r="4.7"/>
			<circle class="st77" cx="172" cy="77.2" r="8.9"/>
			<circle class="st77" cx="177" cy="85.7" r="4.3"/>
			<circle class="st77" cx="162.7" cy="82.9" r="8.9"/>
			<circle class="st77" cx="154.1" cy="83.6" r="5"/>
			<circle class="st77" cx="172" cy="85" r="6.8"/>
		</g>
	</g>
</g>
<g id="DESIGNED_BY_FREEPIK">
</g>
</svg>
